<?xml version="1.0" standalone="no"?>
<!DOCTYPE svg PUBLIC "-//W3C//DTD SVG 20010904//EN"
 "http://www.w3.org/TR/2001/REC-SVG-20010904/DTD/svg10.dtd">
<svg version="1.0" xmlns="http://www.w3.org/2000/svg"
 width="400.000000pt" height="400.000000pt" viewBox="0 0 400.000000 400.000000"
 preserveAspectRatio="xMidYMid meet">
<metadata>
Created by potrace 1.11, written by Peter Selinger 2001-2013
</metadata>
<g transform="translate(0.000000,400.000000) scale(0.100000,-0.100000)"
fill="#000000" stroke="none">
<path d="M1885 3652 c-28 -10 -87 -38 -130 -63 -338 -194 -455 -262 -455 -268
0 -3 24 -19 53 -35 58 -31 330 -188 902 -519 209 -121 400 -231 425 -245 25
-14 50 -28 56 -33 6 -5 20 -2 32 7 12 8 32 21 45 27 12 7 100 57 195 112 204
118 182 105 310 179 56 32 102 63 102 68 0 24 -84 83 -259 184 -102 59 -363
210 -580 336 -216 125 -417 236 -447 248 -69 25 -179 26 -249 2z"/>
<path d="M932 3115 c-145 -84 -284 -171 -309 -194 l-47 -41 339 -195 c186
-107 344 -195 352 -195 7 0 26 8 41 19 15 10 154 91 310 181 155 89 282 165
282 168 0 4 -10 12 -23 18 -12 6 -168 95 -347 198 -179 104 -327 189 -330 191
-3 1 -123 -66 -268 -150z"/>
<path d="M519 2748 c-19 -64 -19 -1421 -1 -1492 16 -63 51 -123 101 -173 32
-33 567 -353 589 -353 8 0 10 1666 2 1673 -5 4 -304 178 -375 217 -22 12 -97
55 -167 96 -70 41 -130 74 -132 74 -3 0 -11 -19 -17 -42z"/>
<path d="M3346 2720 c-65 -39 -121 -70 -123 -70 -3 0 -17 -8 -31 -19 -15 -10
-47 -29 -72 -43 -106 -59 -287 -164 -305 -178 -20 -15 -20 -25 -20 -382 0
-203 2 -368 4 -368 3 0 251 142 326 187 11 7 27 16 35 20 8 4 59 33 113 65 54
32 100 58 102 58 2 0 32 17 66 39 l64 38 0 324 c-1 237 -4 334 -14 362 -7 20
-16 37 -19 37 -4 -1 -60 -32 -126 -70z"/>
<path d="M1935 2760 c-11 -5 -155 -87 -320 -183 l-300 -174 -2 -371 c-1 -205
1 -372 5 -371 4 0 19 8 34 17 15 9 141 82 279 162 138 80 267 155 287 166 l37
22 0 371 c0 204 0 371 0 370 0 0 -9 -4 -20 -9z"/>
<path d="M2053 2398 l2 -372 315 -182 c173 -101 318 -183 321 -184 4 0 6 165
6 366 1 413 9 373 -84 424 -96 54 -142 80 -346 199 -114 67 -210 121 -212 121
-2 0 -3 -167 -2 -372z"/>
<path d="M3365 1874 c-71 -42 -148 -86 -170 -98 -22 -13 -128 -74 -235 -136
-107 -62 -215 -124 -240 -138 -25 -14 -49 -28 -55 -32 -5 -4 -26 -17 -45 -27
-19 -11 -127 -73 -240 -138 -113 -65 -218 -126 -235 -135 -16 -10 -44 -26 -61
-36 l-32 -18 -1 -394 -1 -394 37 7 c51 9 90 30 493 263 365 211 446 258 515
297 253 144 284 165 336 236 68 90 73 120 74 492 0 180 -2 327 -5 327 -3 -1
-63 -35 -135 -76z"/>
<path d="M1685 1760 c-170 -98 -311 -183 -312 -187 -3 -7 466 -284 593 -350
l42 -23 139 81 c76 45 156 91 178 103 154 88 312 180 319 187 6 6 5 9 -2 9 -7
0 -29 11 -50 24 -79 50 -579 336 -588 336 -5 0 -148 -81 -319 -180z"/>
<path d="M1315 1467 c-2 -6 -3 -190 -2 -407 l2 -394 105 -63 c58 -34 116 -68
130 -75 14 -7 79 -44 145 -83 66 -38 131 -75 145 -82 43 -20 101 -35 108 -28
4 4 7 178 8 388 0 322 -2 385 -14 400 -8 9 -19 17 -23 17 -5 0 -37 17 -71 38
-35 21 -88 52 -118 69 -72 40 -352 203 -365 212 -21 16 -46 20 -50 8z"/>
</g>
</svg>
