<?xml version="1.0" encoding="utf-8"?>
<!-- Generator: Adobe Illustrator 24.3.0, SVG Export Plug-In . SVG Version: 6.00 Build 0)  -->
<svg version="1.1" id="Layer_1" xmlns="http://www.w3.org/2000/svg" xmlns:xlink="http://www.w3.org/1999/xlink" x="0px" y="0px"
	 viewBox="0 0 50 50" style="enable-background:new 0 0 50 50;" xml:space="preserve">
<style type="text/css">
	.st0{fill:url(#SVGID_1_);}
	.st1{fill:#FFFFFF;}
	.st2{fill:none;}
</style>
<linearGradient id="SVGID_1_" gradientUnits="userSpaceOnUse" x1="55.4738" y1="448.9088" x2="134.2738" y2="448.9088" gradientTransform="matrix(0.7071 0.7071 0.7071 -0.7071 -358.7996 276.2234)">
	<stop  offset="0" style="stop-color:#31BCAF"/>
	<stop  offset="1" style="stop-color:#1483C1"/>
</linearGradient>
<circle class="st0" cx="24.8" cy="25" r="25"/>
<circle class="st1" cx="24.8" cy="25" r="3.9"/>
<path class="st2" d="M33.2,26.3c3.5-3.3,4.9-6.6,3.8-8.3c-0.7-1.2-2.5-1.8-5-1.6c0.8,2.8,1.2,5.7,1.2,8.6
	C33.2,25.5,33.2,25.9,33.2,26.3z"/>
<path class="st2" d="M16.5,23.7C13,27,11.6,30.3,12.6,32c0.7,1.2,2.5,1.8,5,1.6c-0.8-2.8-1.2-5.8-1.2-8.7
	C16.4,24.5,16.4,24.1,16.5,23.7z"/>
<path class="st1" d="M31.2,16.4c-0.5,0.1-1,0.1-1.6,0.2c0.8,2.7,1.2,5.5,1.2,8.4c0,1.1-0.1,2.3-0.2,3.4c0.6-0.4,1.2-0.9,1.7-1.3
	c0-0.7,0.1-1.4,0.1-2.1C32.5,22.1,32.1,19.2,31.2,16.4z"/>
<path class="st1" d="M19,14.9c-0.2,0.5-0.4,1-0.5,1.5c1.1,0.1,2.3,0.4,3.4,0.7c0.7-0.4,1.3-0.7,2-1C22.2,15.5,20.6,15.1,19,14.9z"/>
<path class="st1" d="M27.9,19.8c2.3,1.3,4.3,2.8,6.1,4.7c0.4-0.4,0.7-0.8,1-1.2c-1.9-1.9-4-3.5-6.3-4.8c-0.3-0.2-0.5-0.3-0.8-0.5
	c-0.7,0.2-1.3,0.5-2,0.7C26.5,19,27.2,19.4,27.9,19.8z"/>
<path class="st1" d="M35.9,26.9c1.4,2.1,1.8,4,1.1,5.2c-0.7,1.2-2.9,2-5.8,1.6c-0.2,0.5-0.4,1-0.5,1.5c0.7,0.1,1.4,0.2,2.1,0.2
	c2.6,0,4.7-0.8,5.6-2.5c1.1-1.9,0.5-4.5-1.4-7.2C36.7,26.1,36.3,26.5,35.9,26.9z"/>
<path class="st1" d="M12.6,18c0.6-1.1,2.1-1.7,4.2-1.7c0.2,0,0.5,0,0.8,0c0.2-0.5,0.4-1.1,0.5-1.6c-3.4-0.3-5.8,0.5-6.9,2.4
	s-0.5,4.5,1.4,7.2c0.3-0.4,0.7-0.8,1.1-1.2C12.3,21,11.9,19.1,12.6,18z"/>
<path class="st1" d="M31.3,29.9c0,0.3-0.1,0.5-0.1,0.8L31.1,31l-0.3,0.2l-0.7,0.4c-0.1,0.4-0.2,0.7-0.3,1c0.5,0.1,1,0.2,1.5,0.2
	c0.3-1.2,0.6-2.4,0.7-3.6C31.9,29.5,31.6,29.6,31.3,29.9z"/>
<path class="st1" d="M20.1,35.8l-0.8,0.1c1.4,3,3.3,4.8,5.5,4.8s4.1-1.8,5.5-4.8c-0.5-0.1-1-0.2-1.6-0.3c-1.1,2.2-2.5,3.5-3.9,3.5
	s-2.8-1.3-3.9-3.5h-0.2L20.1,35.8"/>
<path class="st1" d="M28.8,35.6c0.5,0.1,1.1,0.2,1.6,0.3c0.1-0.2,0.2-0.5,0.3-0.8c-0.5-0.1-1-0.2-1.6-0.3
	C29,35.1,28.9,35.3,28.8,35.6z"/>
<path class="st1" d="M29.7,33.4c-0.2,0.5-0.4,1-0.5,1.5c0.5,0.1,1,0.2,1.6,0.3c0.2-0.5,0.4-1,0.5-1.5C30.7,33.6,30.2,33.5,29.7,33.4
	z"/>
<path class="st1" d="M24.8,16.5c-0.4-0.1-0.7-0.3-1-0.4c-0.7,0.3-1.3,0.6-2,1l1,0.3C23.5,17.1,24.2,16.8,24.8,16.5z"/>
<path class="st1" d="M24.8,18.2l1,0.4c0.7-0.3,1.4-0.5,2-0.7c-0.3-0.2-0.6-0.4-1-0.5C26.2,17.7,25.5,17.9,24.8,18.2z"/>
<path class="st1" d="M22.8,17.4c-0.3,0.2-0.6,0.3-1,0.5c0.6,0.2,1.3,0.5,2,0.7c0.3-0.2,0.7-0.3,1-0.5C24.1,17.9,23.5,17.7,22.8,17.4
	z"/>
<path class="st1" d="M28.9,16.8c-0.2-0.5-0.3-1-0.6-1.5c-1.2,0.3-2.4,0.7-3.5,1.2c0.7,0.3,1.3,0.6,2,0.9
	C27.5,17.2,28.2,17,28.9,16.8z"/>
<path class="st1" d="M26.8,17.4c-0.7-0.3-1.3-0.6-2-0.9c-0.7,0.3-1.3,0.6-2,0.9c0.7,0.2,1.3,0.5,2,0.8
	C25.5,17.9,26.2,17.7,26.8,17.4z"/>
<path class="st1" d="M34.5,25c0.4-0.4,0.7-0.8,1-1.2c-0.2-0.2-0.4-0.4-0.6-0.6c-0.3,0.4-0.6,0.8-1,1.2C34.1,24.6,34.3,24.8,34.5,25z
	"/>
<path class="st1" d="M38.4,17.2c-1.1-1.9-3.7-2.7-6.9-2.4l-0.8,0.1c0.2,0.5,0.4,1,0.5,1.5c0.3,0,0.5-0.1,0.8-0.1
	c2.5-0.1,4.3,0.4,5,1.6s0.2,3.5-1.5,5.8c0.4,0.4,0.7,0.8,1,1.2C38.8,22.1,39.6,19.2,38.4,17.2z"/>
<path class="st1" d="M34.9,26.8l0.5-0.6c-0.3-0.4-0.6-0.8-1-1.2c-0.2,0.2-0.4,0.4-0.5,0.6C34.3,26,34.6,26.4,34.9,26.8z"/>
<path class="st1" d="M33.2,26.3c0,0.8-0.1,1.5-0.1,2.2c0.7-0.6,1.3-1.2,1.9-1.7c-0.3-0.4-0.6-0.8-1-1.2
	C33.7,25.8,33.5,26.1,33.2,26.3z"/>
<path class="st1" d="M36.5,25c-0.3-0.4-0.7-0.8-1-1.2c-0.3,0.4-0.6,0.8-1,1.2c0.4,0.4,0.7,0.8,1,1.2C35.9,25.8,36.2,25.4,36.5,25z"
	/>
<path class="st1" d="M30.2,31.6l0.7-0.4l0.3-0.2l0.1-0.3c0-0.3,0.1-0.5,0.1-0.8c-0.3,0.2-0.6,0.4-0.9,0.6
	C30.3,30.9,30.2,31.2,30.2,31.6z"/>
<path class="st1" d="M24.8,31.8c0.7,0.3,1.4,0.6,2,0.8c0.3-0.2,0.6-0.3,1-0.5c-0.7-0.2-1.3-0.5-2-0.7C25.5,31.5,25.1,31.6,24.8,31.8
	z"/>
<path class="st1" d="M21.8,32.9l-1,0.3L20,33.4c0.2,0.5,0.3,1,0.6,1.5c0.3,0,0.5-0.1,0.8-0.2c0.8-0.2,1.6-0.5,2.4-0.8
	c-0.4-0.2-0.9-0.4-1.3-0.6L21.8,32.9z"/>
<path class="st1" d="M28.6,31.6c0.3-0.2,0.5-0.3,0.8-0.5l0.9-0.6c0.1-0.7,0.2-1.4,0.3-2.1c-0.3,0.2-0.6,0.4-0.9,0.6
	c-0.6,0.4-1.3,0.8-2,1.2s-1.4,0.8-2.1,1.1c0.7,0.3,1.3,0.5,2,0.7C28.1,31.9,28.4,31.8,28.6,31.6z"/>
<path class="st1" d="M27.9,32.9l-1-0.3c-0.6-0.2-1.3-0.5-2-0.8c-0.3-0.1-0.6-0.3-1-0.4c-0.7-0.3-1.4-0.7-2-1.1
	c-2.2-1.3-4.3-2.8-6.1-4.7c-0.4,0.4-0.7,0.8-1,1.2c1.9,1.9,4,3.5,6.2,4.8l0.8,0.5l1,0.5c0.7,0.3,1.4,0.6,2,0.9l1,0.4
	c1.1,0.4,2.2,0.7,3.3,1c0.2-0.5,0.4-1,0.5-1.5C29.1,33.2,28.5,33.1,27.9,32.9z"/>
<path class="st1" d="M14.2,23.8c-0.2-0.2-0.3-0.4-0.5-0.6c-0.4,0.4-0.7,0.8-1.1,1.2c0.2,0.2,0.3,0.4,0.5,0.7
	C13.4,24.6,13.8,24.2,14.2,23.8z"/>
<path class="st1" d="M18,33.7c-0.1,0-0.3,0-0.4,0c-2.5,0.2-4.3-0.4-5-1.6s-0.2-3.5,1.6-5.8c-0.4-0.4-0.7-0.8-1-1.2
	c-2.3,2.9-3.1,5.8-1.9,7.8c0.9,1.6,2.9,2.5,5.6,2.5c0.4,0,0.9,0,1.3-0.1l0,0l0.8-0.1c-0.2-0.5-0.4-1-0.5-1.5L18,33.7z"/>
<path class="st1" d="M15.7,24.4c-0.4-0.4-0.7-0.8-1-1.2c-0.2,0.2-0.4,0.4-0.6,0.6c0.3,0.4,0.6,0.8,1,1.2
	C15.3,24.8,15.5,24.6,15.7,24.4z"/>
<path class="st1" d="M15.2,25c-0.4-0.4-0.7-0.8-1-1.2c-0.4,0.4-0.7,0.8-1,1.2c0.3,0.4,0.7,0.8,1,1.2C14.5,25.8,14.8,25.4,15.2,25z"
	/>
<path class="st1" d="M24.8,9.3c-3.4,0-6.1,4.3-7.2,10.3c0.4-0.3,0.8-0.5,1.2-0.8l0.7-0.4c1.1-4.7,3.3-7.5,5.3-7.5
	c1.5,0,3.1,1.6,4.3,4.3c0.5-0.1,1.1-0.2,1.6-0.3C29.3,11.5,27.2,9.3,24.8,9.3z"/>
<path class="st1" d="M21.9,18c-0.3,0.1-0.6,0.3-0.9,0.5s-0.5,0.3-0.8,0.5s-0.6,0.4-0.9,0.6c-0.6,0.4-1.2,0.8-1.8,1.3l-0.9,0.7
	c-0.7,0.5-1.3,1.1-1.9,1.7c0.3,0.4,0.6,0.8,1,1.2c0.2-0.2,0.5-0.5,0.8-0.8c0.3-0.2,0.5-0.5,0.8-0.7c0.5-0.5,1.1-0.9,1.7-1.3l0.9-0.6
	c0.6-0.4,1.3-0.8,2-1.2s1.4-0.8,2.1-1.1C23.2,18.4,22.5,18.2,21.9,18z"/>
<path class="st1" d="M20,33.4c-0.5,0.1-1,0.2-1.5,0.2c0.2,0.5,0.3,1,0.5,1.5c0.5-0.1,1-0.2,1.6-0.3C20.4,34.4,20.2,33.9,20,33.4z"/>
<path class="st1" d="M29.7,16.6c0.5-0.1,1-0.2,1.6-0.2c-0.2-0.5-0.4-1-0.5-1.5c-0.5,0.1-1,0.2-1.6,0.3
	C29.3,15.6,29.5,16.1,29.7,16.6z"/>
<path class="st1" d="M30.4,30.5c0.6-0.4,1.2-0.8,1.8-1.3c0.1-0.7,0.2-1.4,0.2-2.2c-0.5,0.4-1.1,0.9-1.7,1.3
	C30.6,29.1,30.5,29.8,30.4,30.5z"/>
</svg>
