<?xml version="1.0" encoding="utf-8"?>
<!-- Generator: Adobe Illustrator 24.3.0, SVG Export Plug-In . SVG Version: 6.00 Build 0)  -->
<svg version="1.1" id="Layer_1" xmlns="http://www.w3.org/2000/svg" xmlns:xlink="http://www.w3.org/1999/xlink" x="0px" y="0px"
	 viewBox="0 0 50 50" style="enable-background:new 0 0 50 50;" xml:space="preserve">
<style type="text/css">
	.st0{fill:url(#SVGID_1_);}
	.st1{fill:#FFFFFF;}
</style>
<linearGradient id="SVGID_1_" gradientUnits="userSpaceOnUse" x1="125.5138" y1="420.1154" x2="204.3138" y2="420.1154" gradientTransform="matrix(0.7071 0.7071 0.7071 -0.7071 -387.7996 206.2234)">
	<stop  offset="0" style="stop-color:#31BCAF"/>
	<stop  offset="1" style="stop-color:#1483C1"/>
</linearGradient>
<circle class="st0" cx="25" cy="24.9" r="25"/>
<path class="st1" d="M38.3,32.7l-5.2-4c3.5-5.8,1.6-13.4-4.2-16.9s-13.4-1.6-16.9,4.2S10.3,29.5,16.1,33c3.9,2.3,8.8,2.3,12.7,0
	l4,5.2c0.2,0.3,0.4,0.5,0.7,0.7c1.7,1.3,4.2,0.9,5.4-0.9C40.1,36.4,39.8,34.1,38.3,32.7L38.3,32.7z M13.9,22.4
	c0-4.8,3.8-8.6,8.6-8.7s8.6,3.8,8.7,8.6S27.3,31,22.5,31c0,0,0,0,0,0C17.8,31,13.9,27.1,13.9,22.4z"/>
<circle class="st1" cx="19.1" cy="25.5" r="2.1"/>
</svg>
