<?xml version="1.0" encoding="utf-8"?>
<!-- Generator: Adobe Illustrator 24.3.0, SVG Export Plug-In . SVG Version: 6.00 Build 0)  -->
<svg version="1.1" id="Layer_1" xmlns="http://www.w3.org/2000/svg" xmlns:xlink="http://www.w3.org/1999/xlink" x="0px" y="0px"
	 viewBox="0 0 50 50" style="enable-background:new 0 0 50 50;" xml:space="preserve">
<style type="text/css">
	.st0{fill:url(#SVGID_1_);}
	.st1{fill:#FFFFFF;}
</style>
<linearGradient id="SVGID_1_" gradientUnits="userSpaceOnUse" x1="26.5938" y1="379.0255" x2="105.3938" y2="379.0255" gradientTransform="matrix(0.7071 0.7071 0.7071 -0.7071 -288.7996 247.2234)">
	<stop  offset="0" style="stop-color:#31BCAF"/>
	<stop  offset="1" style="stop-color:#1483C1"/>
</linearGradient>
<circle class="st0" cx="25" cy="25" r="25"/>
<path class="st1" d="M29.3,32.8l3.5-9.5l-3-3l-3-3l-9.5,3.5L9.9,36.5l1.4,1.3l9.4-9.4c-0.5-1,0-2.1,0.9-2.6s2.1,0,2.6,0.9
	s0,2.1-0.9,2.6c-0.5,0.2-1.1,0.2-1.6,0l-9.4,9.4l1.4,1.3L29.3,32.8z"/>
<path class="st1" d="M27.3,12.7l1.5-1.5c0.7-0.7,1.9-0.7,2.7,0l7.4,7.4c0.7,0.7,0.7,1.9,0,2.7l-1.5,1.5c-0.7,0.7-1.9,0.7-2.7,0
	l-7.4-7.4C26.6,14.6,26.6,13.4,27.3,12.7z"/>
</svg>
