<?xml version="1.0" encoding="utf-8"?>
<!-- Generator: Adobe Illustrator 24.3.0, SVG Export Plug-In . SVG Version: 6.00 Build 0)  -->
<svg version="1.1" id="Layer_1" xmlns="http://www.w3.org/2000/svg" xmlns:xlink="http://www.w3.org/1999/xlink" x="0px" y="0px"
	 viewBox="0 0 50 50" style="enable-background:new 0 0 50 50;" xml:space="preserve">
<style type="text/css">
	.st0{fill:url(#SVGID_1_);}
	.st1{fill:#FFFFFF;}
</style>
<linearGradient id="SVGID_1_" gradientUnits="userSpaceOnUse" x1="96.5938" y1="350.0341" x2="175.3938" y2="350.0341" gradientTransform="matrix(0.7071 0.7071 0.7071 -0.7071 -317.7996 177.2234)">
	<stop  offset="0" style="stop-color:#31BCAF"/>
	<stop  offset="1" style="stop-color:#1483C1"/>
</linearGradient>
<circle class="st0" cx="25" cy="25" r="25"/>
<rect x="15.1" y="9.6" class="st1" width="19.8" height="2.5"/>
<rect x="15.1" y="37.9" class="st1" width="19.8" height="2.5"/>
<path class="st1" d="M17.5,32.5v3.2h15v-3.2c0-2.3-1.1-4.5-3-5.8L27,24.9l2.5-1.8c1.9-1.3,3-3.5,3-5.8v-3.2h-15v3.2
	c0,2.3,1.1,4.5,3,5.8l2.5,1.8l-2.5,1.8C18.6,28,17.5,30.2,17.5,32.5z M21.6,21.5c-1.3-1-2.1-2.5-2.1-4.2v-1.2h11v1.2
	c0,1.7-0.8,3.2-2.2,4.2L25,23.9L21.6,21.5z M21.6,28.2l3.4-2.4l3.4,2.4c1.3,1,2.1,2.5,2.1,4.2v1.2h-11v-1.2
	C19.5,30.8,20.3,29.3,21.6,28.2L21.6,28.2z"/>
<path class="st1" d="M19.5,33.7h11v-1.2c0-1.7-0.8-3.2-2.1-4.2L25,25.9l-3.4,2.4c-1.4,1-2.2,2.5-2.2,4.2L19.5,33.7z"/>
</svg>
