<?xml version="1.0" encoding="utf-8"?>
<!-- Generator: Adobe Illustrator 24.3.0, SVG Export Plug-In . SVG Version: 6.00 Build 0)  -->
<svg version="1.1" id="Layer_1" xmlns="http://www.w3.org/2000/svg" xmlns:xlink="http://www.w3.org/1999/xlink" x="0px" y="0px"
	 viewBox="0 0 50 50" style="enable-background:new 0 0 50 50;" xml:space="preserve">
<style type="text/css">
	.st0{fill:url(#SVGID_1_);}
	.st1{fill:#FFFFFF;}
</style>
<linearGradient id="SVGID_1_" gradientUnits="userSpaceOnUse" x1="105.0138" y1="469.6058" x2="183.8138" y2="469.6058" gradientTransform="matrix(0.7071 0.7071 0.7071 -0.7071 -408.2996 255.7134)">
	<stop  offset="0" style="stop-color:#31BCAF"/>
	<stop  offset="1" style="stop-color:#1483C1"/>
</linearGradient>
<circle class="st0" cx="25" cy="24.9" r="25"/>
<g id="YgcsE0.tif">
	<path class="st1" d="M14.2,19.3l0.5,0.2l1.6,0.7c0.4,0.2,0.9,0.2,1.3,0c0.8-0.2,1.5-0.8,1.7-1.6c0.1-0.4,0.2-0.7,0.4-1.1
		c0.1-0.4,0.5-0.7,0.9-0.7c0.4,0,0.7,0,1.1,0c0.5,0,0.9,0.3,1,0.7c0.2,0.5,0.4,1,0.5,1.4c0.3,0.6,0.8,1.1,1.4,1.2
		c0.6,0.2,1.3,0.2,1.9-0.1l1.1-0.5c0.4-0.2,0.9-0.1,1.1,0.2c0.2,0.2,0.5,0.5,0.7,0.7c0.4,0.3,0.5,0.8,0.2,1.2
		c-0.2,0.5-0.4,1-0.6,1.4c-0.2,0.5-0.2,1.1,0,1.6c0.2,0.7,0.7,1.3,1.4,1.5c0.4,0.1,0.9,0.3,1.3,0.5c0.4,0.1,0.6,0.4,0.6,0.8
		c0,0.4,0,0.8,0,1.3c0,0.4-0.3,0.7-0.7,0.9c-0.3,0.1-0.6,0.2-1,0.3c-1,0.3-1.7,1.1-1.8,2.1c-0.1,0.3-0.1,0.7,0.1,1
		c0.2,0.5,0.4,1,0.6,1.5c0.3,0.4,0.2,1-0.2,1.2l-0.6,0.7c-0.3,0.4-0.9,0.5-1.3,0.2c-0.5-0.3-1.1-0.5-1.7-0.7c-1-0.2-1.9,0.2-2.5,1
		c-0.3,0.6-0.5,1.1-0.7,1.7c-0.1,0.4-0.5,0.8-1,0.7h-0.9c-0.5,0-0.9-0.3-1.1-0.8c-0.1-0.3-0.2-0.6-0.3-0.9c-0.3-1-1.1-1.8-2.2-1.9
		c-0.4-0.1-0.8,0-1.1,0.2c-0.5,0.2-0.9,0.4-1.3,0.6c-0.4,0.2-0.9,0.1-1.2-0.2l-0.8-0.8c-0.3-0.3-0.4-0.8-0.2-1.1
		c0.2-0.5,0.5-1.1,0.7-1.7c0.1-0.4,0.1-0.8,0-1.1c-0.2-0.9-0.9-1.6-1.8-1.9c-0.3-0.1-0.6-0.2-1-0.3c-0.4-0.1-0.7-0.5-0.7-0.9v-1.2
		c0-0.4,0.2-0.8,0.6-0.9c0.5-0.2,1-0.4,1.5-0.6c0.9-0.4,1.4-1.4,1.4-2.3c0-0.3-0.1-0.7-0.3-1c-0.1-0.4-0.4-0.7-0.5-1.1
		c-0.2-0.4-0.1-0.8,0.2-1.1c0.3-0.3,0.5-0.5,0.8-0.8C13.8,19.5,14,19.4,14.2,19.3z M16.4,28c0,2.6,2.1,4.8,4.8,4.8S26,30.7,26,28
		c0-2.6-2.1-4.8-4.8-4.8c0,0,0,0,0,0C18.6,23.2,16.4,25.4,16.4,28C16.4,28,16.4,28,16.4,28z"/>
	<path class="st1" d="M29.7,12.7l0.9,0.1c0.7,0.1,1.4-0.5,1.4-1.2c0,0,0-0.1,0-0.1c0-0.2,0-0.3,0-0.5c0-0.3,0.2-0.5,0.4-0.5
		c0.8-0.2,0.8-0.2,1.3,0.5c0.3,0.5,0.8,0.7,1.3,0.7c0.2,0,0.3-0.1,0.4-0.1c0.2-0.1,0.3-0.2,0.4-0.3c0.6-0.5,0.7-0.5,1.3-0.1
		c0.2,0.1,0.4,0.4,0.3,0.7c-0.1,0.3-0.1,0.5-0.1,0.8c-0.1,0.7,0.5,1.3,1.2,1.4c0.2,0,0.4,0,0.7,0.1c0.2,0,0.5,0.2,0.5,0.4l0,0
		c0.2,0.9,0.3,0.8-0.5,1.3c-0.5,0.3-0.8,0.8-0.7,1.3c0,0.2,0.1,0.3,0.2,0.5c0.1,0.1,0.2,0.3,0.3,0.4c0.5,0.6,0.5,0.7,0.1,1.4
		c-0.1,0.2-0.4,0.4-0.6,0.3c-0.3-0.1-0.5-0.1-0.8-0.1c-0.7,0-1.3,0.5-1.3,1.2c0,0.2,0,0.4-0.1,0.6c0,0.2-0.2,0.4-0.4,0.5l0,0
		c-0.8,0.2-0.8,0.2-1.3-0.5c-0.3-0.5-0.8-0.7-1.3-0.7c-0.1,0-0.3,0-0.4,0.1c-0.2,0.1-0.4,0.2-0.5,0.4c-0.6,0.5-0.7,0.5-1.4,0.1
		c-0.2-0.1-0.3-0.4-0.3-0.6c0-0.2,0.1-0.4,0.1-0.5c0.2-0.7-0.3-1.4-1-1.6c-0.1,0-0.2,0-0.3,0c-0.2,0-0.4,0-0.5,0
		c-0.2,0-0.5-0.2-0.5-0.4c-0.2-0.8-0.3-0.8,0.5-1.3c0.4-0.2,0.6-0.6,0.7-1c0.1-0.3,0-0.6-0.2-0.9l-0.2-0.3c-0.5-0.6-0.5-0.8,0-1.4
		C29.5,12.9,29.6,12.8,29.7,12.7z M31.8,16.1c0,1.4,1.1,2.5,2.4,2.5s2.5-1.1,2.5-2.4c0-1.4-1.1-2.5-2.4-2.5c0,0,0,0,0,0
		C32.9,13.7,31.8,14.8,31.8,16.1z"/>
</g>
</svg>
