<?xml version="1.0" encoding="utf-8"?>
<!-- Generator: Adobe Illustrator 24.3.0, SVG Export Plug-In . SVG Version: 6.00 Build 0)  -->
<svg version="1.1" id="Layer_1" xmlns="http://www.w3.org/2000/svg" xmlns:xlink="http://www.w3.org/1999/xlink" x="0px" y="0px"
	 viewBox="0 0 50 50" style="enable-background:new 0 0 50 50;" xml:space="preserve">
<style type="text/css">
	.st0{fill:url(#SVGID_1_);}
	.st1{fill:none;}
	.st2{fill:#FFFFFF;}
</style>
<linearGradient id="SVGID_1_" gradientUnits="userSpaceOnUse" x1="146.0238" y1="370.6109" x2="224.8238" y2="370.6109" gradientTransform="matrix(0.7071 0.7071 0.7071 -0.7071 -367.2896 156.7234)">
	<stop  offset="0" style="stop-color:#31BCAF"/>
	<stop  offset="1" style="stop-color:#1483C1"/>
</linearGradient>
<circle class="st0" cx="25" cy="24.9" r="25"/>
<path class="st1" d="M30.5,17.9c0.3-3-2-5.7-5-6c-3-0.3-5.7,2-6,5c0,0.3,0,0.6,0,0.9v3.1h11V17.9z"/>
<path class="st2" d="M36.1,21h-1.6v-3.1c-0.3-5.2-4.9-9.2-10.1-8.9c-4.8,0.3-8.6,4.1-8.9,8.9v3.1h-1.6c-1.7,0-3.1,1.4-3.1,3.1v12.4
	c0,1.7,1.4,3.1,3.1,3.2h22.2c1.7,0,3.1-1.4,3.1-3.2V24.2C39.2,22.5,37.8,21.1,36.1,21z M19.5,17.9c-0.3-3,2-5.7,5-6c3-0.3,5.7,2,6,5
	c0,0.3,0,0.6,0,0.9v3.1h-11V17.9z M22.5,36.7L17.8,32l2.1-2.1l2.6,2.6l7.6-7.6l2.1,2.1L22.5,36.7z"/>
</svg>
