<?xml version="1.0" encoding="utf-8"?>
<!-- Generator: Adobe Illustrator 24.3.0, SVG Export Plug-In . SVG Version: 6.00 Build 0)  -->
<svg version="1.1" id="Layer_1" xmlns="http://www.w3.org/2000/svg" xmlns:xlink="http://www.w3.org/1999/xlink" x="0px" y="0px"
	 viewBox="0 0 50 50" style="enable-background:new 0 0 50 50;" xml:space="preserve">
<style type="text/css">
	.st0{fill:url(#SVGID_1_);}
	.st1{fill:#FFFFFF;}
</style>
<linearGradient id="SVGID_1_" gradientUnits="userSpaceOnUse" x1="76.0238" y1="399.4538" x2="154.8239" y2="399.4538" gradientTransform="matrix(0.7071 0.7071 0.7071 -0.7071 -338.2996 226.7234)">
	<stop  offset="0" style="stop-color:#31BCAF"/>
	<stop  offset="1" style="stop-color:#1483C1"/>
</linearGradient>
<circle class="st0" cx="24.9" cy="25" r="25"/>
<path class="st1" d="M21,38.4h7.6c0.8,0,1.4-0.6,1.4-1.4v-1.5H19.6V37C19.6,37.8,20.2,38.4,21,38.4C21,38.4,21,38.4,21,38.4z"/>
<path class="st1" d="M21.2,36.5h7.2l0,0v2c0,1-0.8,1.9-1.9,1.9c0,0,0,0,0,0H23c-1,0-1.9-0.8-1.8-1.9V36.5L21.2,36.5z"/>
<path class="st1" d="M24.4,9.7C18.6,9.9,13.5,15.3,13.9,21c0.5,6.4,5.4,6.9,6.1,11.2c0.1,0.7,0.7,1.2,1.5,1.2h7
	c0.7,0,1.3-0.5,1.4-1.2c0.6-4.7,6.1-4.9,6.1-12.6C35.9,14,30.2,9.4,24.4,9.7z M27.7,20.5H26v9.5h-2.3v-9.5h-1.6
	c-0.6,0-1.1-0.5-1.1-1.2l0,0c0-0.6,0.5-1.2,1.1-1.2c0,0,0,0,0,0h5.6c0.6,0,1.2,0.5,1.1,1.2l0,0C28.8,20,28.3,20.5,27.7,20.5
	C27.7,20.5,27.7,20.5,27.7,20.5z"/>
</svg>
