<?xml version="1.0" encoding="utf-8"?>
<!-- Generator: Adobe Illustrator 24.3.0, SVG Export Plug-In . SVG Version: 6.00 Build 0)  -->
<svg version="1.1" id="Layer_1" xmlns="http://www.w3.org/2000/svg" xmlns:xlink="http://www.w3.org/1999/xlink" x="0px" y="0px"
	 viewBox="0 0 50 50" style="enable-background:new 0 0 50 50;" xml:space="preserve">
<style type="text/css">
	.st0{fill:url(#SVGID_1_);}
	.st1{fill:#FFFFFF;}
</style>
<linearGradient id="SVGID_1_" gradientUnits="userSpaceOnUse" x1="35.0938" y1="498.5265" x2="113.8938" y2="498.5265" gradientTransform="matrix(0.7071 0.7071 0.7071 -0.7071 -379.2996 325.7134)">
	<stop  offset="0" style="stop-color:#31BCAF"/>
	<stop  offset="1" style="stop-color:#1483C1"/>
</linearGradient>
<circle class="st0" cx="25" cy="25" r="25"/>
<g id="GwdAMn.tif">
	<path class="st1" d="M9,25c0-8.8,7.2-16,16-16s16,7.2,16,16s-7.2,16-16,16S9,33.8,9,25z M25,12.7c-6.8,0-12.3,5.5-12.3,12.3
		S18.2,37.3,25,37.3S37.3,31.8,37.3,25C37.3,18.2,31.8,12.7,25,12.7L25,12.7z"/>
	<path class="st1" d="M32.4,25c0,4.1-3.3,7.4-7.4,7.4s-7.4-3.3-7.4-7.4s3.3-7.4,7.4-7.4l0,0C29.1,17.6,32.4,20.9,32.4,25z M28.7,25
		c0-2-1.7-3.7-3.7-3.7S21.3,23,21.3,25c0,2,1.6,3.7,3.7,3.7C27,28.7,28.7,27.1,28.7,25C28.7,25,28.7,25,28.7,25z"/>
</g>
</svg>
