<?xml version="1.0" encoding="utf-8"?>
<!-- Generator: Adobe Illustrator 24.3.0, SVG Export Plug-In . SVG Version: 6.00 Build 0)  -->
<svg version="1.1" id="Layer_1" xmlns="http://www.w3.org/2000/svg" xmlns:xlink="http://www.w3.org/1999/xlink" x="0px" y="0px"
	 viewBox="0 0 50 50" style="enable-background:new 0 0 50 50;" xml:space="preserve">
<style type="text/css">
	.st0{fill:url(#SVGID_1_);}
	.st1{fill:#FFFFFF;}
</style>
<linearGradient id="SVGID_1_" gradientUnits="userSpaceOnUse" x1="-14.4062" y1="478.0275" x2="64.3938" y2="478.0275" gradientTransform="matrix(0.7071 0.7071 0.7071 -0.7071 -329.8095 346.2234)">
	<stop  offset="0" style="stop-color:#31BCAF"/>
	<stop  offset="1" style="stop-color:#1483C1"/>
</linearGradient>
<circle class="st0" cx="25" cy="25" r="25"/>
<path class="st1" d="M22.4,11c-0.7,0-1.4,0.1-2.1,0.2l6.1,6.1v5.6l-3.5,3.5h-5.6l-6.1-6.1c-1.2,6.2,2.9,12.2,9.1,13.3
	s12.2-2.9,13.3-9.1s-2.9-12.2-9.1-13.3C23.8,11.1,23.1,11,22.4,11z"/>
<path class="st1" d="M23.4,31.2l7.9,7.9l3-3l-5.8-5.8c-0.5-0.6-0.4-1.4,0.2-1.9c0.5-0.4,1.2-0.4,1.7,0l5.8,5.8l3-3l-7.9-7.9
	L23.4,31.2z"/>
</svg>
